<svg width="32" height="32" viewBox="0 0 32 32" fill="none" xmlns="http://www.w3.org/2000/svg">
<g clip-path="url(#clip0_618_4534)">
<path d="M26.5998 7.38137L21.9518 2.73337C21.0873 1.86414 20.0589 1.175 18.9263 0.705824C17.7936 0.23665 16.5791 -0.00324075 15.3532 3.30615e-05H9.33317C7.56571 0.0021502 5.87125 0.705209 4.62146 1.95499C3.37168 3.20478 2.66862 4.89924 2.6665 6.6667V25.3334C2.66862 27.1008 3.37168 28.7953 4.62146 30.0451C5.87125 31.2949 7.56571 31.9979 9.33317 32H22.6665C24.434 31.9979 26.1284 31.2949 27.3782 30.0451C28.628 28.7953 29.3311 27.1008 29.3332 25.3334V13.98C29.3364 12.7541 29.0966 11.5396 28.6274 10.4069C28.1582 9.27429 27.4691 8.24593 26.5998 7.38137ZM24.7145 9.2667C25.1212 9.68591 25.4713 10.1566 25.7558 10.6667H19.9998C19.6462 10.6667 19.3071 10.5262 19.057 10.2762C18.807 10.0261 18.6665 9.68699 18.6665 9.33337V3.57737C19.1766 3.86188 19.6473 4.21197 20.0665 4.6187L24.7145 9.2667ZM26.6665 25.3334C26.6665 26.3942 26.2451 27.4116 25.4949 28.1618C24.7448 28.9119 23.7274 29.3334 22.6665 29.3334H9.33317C8.2723 29.3334 7.25489 28.9119 6.50474 28.1618C5.7546 27.4116 5.33317 26.3942 5.33317 25.3334V6.6667C5.33317 5.60583 5.7546 4.58842 6.50474 3.83827C7.25489 3.08813 8.2723 2.6667 9.33317 2.6667H15.3532C15.5732 2.6667 15.7838 2.70937 15.9998 2.72937V9.33337C15.9998 10.3942 16.4213 11.4116 17.1714 12.1618C17.9216 12.9119 18.939 13.3334 19.9998 13.3334H26.6038C26.6238 13.5494 26.6665 13.76 26.6665 13.98V25.3334ZM22.2985 17.748C22.542 18.0041 22.6738 18.3464 22.6651 18.6997C22.6563 19.0529 22.5077 19.3883 22.2518 19.632L17.4665 24.184C16.7143 24.9244 15.6999 25.3375 14.6445 25.3332C13.5891 25.329 12.5781 24.9078 11.8318 24.1614L9.7785 22.3294C9.51435 22.0939 9.35457 21.7631 9.33431 21.4097C9.32429 21.2348 9.34881 21.0596 9.4065 20.8941C9.46418 20.7286 9.55389 20.5762 9.6705 20.4454C9.78712 20.3146 9.92835 20.208 10.0861 20.1318C10.2439 20.0556 10.4152 20.0112 10.5901 20.0012C10.9435 19.9809 11.2903 20.1019 11.5545 20.3374L13.6678 22.2227C13.7888 22.3586 13.9363 22.4682 14.1013 22.545C14.2662 22.6217 14.4451 22.6638 14.627 22.6688C14.8088 22.6738 14.9898 22.6416 15.1587 22.574C15.3276 22.5065 15.4809 22.405 15.6092 22.276L20.4092 17.7014C20.5361 17.58 20.6857 17.4849 20.8495 17.4216C21.0133 17.3582 21.188 17.3278 21.3635 17.3321C21.5391 17.3365 21.7121 17.3755 21.8725 17.4468C22.033 17.5182 22.1777 17.6206 22.2985 17.748Z" fill="white"/>
</g>
<defs>
<clipPath id="clip0_618_4534">
<rect width="32" height="32" fill="white"/>
</clipPath>
</defs>
</svg>
