<svg width="32" height="32" viewBox="0 0 32 32" fill="none" xmlns="http://www.w3.org/2000/svg">
<g clip-path="url(#clip0_618_4516)">
<path d="M16 13.3333C14.9391 13.3333 13.9217 12.9119 13.1716 12.1618C12.4214 11.4116 12 10.3942 12 9.33333C12 8.27247 12.4214 7.25505 13.1716 6.50491C13.9217 5.75476 14.9391 5.33333 16 5.33333C17.0609 5.33333 18.0783 5.75476 18.8284 6.50491C19.5786 7.25505 20 8.27247 20 9.33333C20 10.3942 19.5786 11.4116 18.8284 12.1618C18.0783 12.9119 17.0609 13.3333 16 13.3333ZM11.9573 20.332C12.2315 19.4754 12.7708 18.728 13.4972 18.1978C14.2237 17.6675 15.0999 17.3817 15.9993 17.3817C16.8988 17.3817 17.7749 17.6675 18.5014 18.1978C19.2279 18.728 19.7672 19.4754 20.0413 20.332C20.1297 20.6747 20.3506 20.9682 20.6555 21.1479C20.9603 21.3277 21.324 21.3791 21.6667 21.2907C22.0093 21.2023 22.3028 20.9814 22.4826 20.6765C22.6624 20.3717 22.7137 20.008 22.6253 19.6653C20.8773 13.0693 11.1187 13.072 9.376 19.6653C9.32786 19.8362 9.31434 20.015 9.33623 20.1912C9.35812 20.3674 9.41497 20.5374 9.50346 20.6914C9.59195 20.8453 9.71028 20.98 9.85153 21.0876C9.99277 21.1951 10.1541 21.2734 10.326 21.3178C10.4979 21.3622 10.6769 21.3718 10.8526 21.3461C11.0283 21.3204 11.197 21.2598 11.349 21.168C11.5009 21.0762 11.633 20.9549 11.7375 20.8114C11.842 20.6678 11.9167 20.5048 11.9573 20.332ZM16.012 31.5533C15.3542 31.5537 14.7192 31.3122 14.228 30.8747L9.23067 26.6667H5.33333C3.91885 26.6667 2.56229 26.1048 1.5621 25.1046C0.561903 24.1044 0 22.7478 0 21.3333V5.33333C0 3.91885 0.561903 2.56229 1.5621 1.5621C2.56229 0.561903 3.91885 0 5.33333 0L26.6667 0C28.0812 0 29.4377 0.561903 30.4379 1.5621C31.4381 2.56229 32 3.91885 32 5.33333V21.3333C32 22.7478 31.4381 24.1044 30.4379 25.1046C29.4377 26.1048 28.0812 26.6667 26.6667 26.6667H22.8627L17.7333 30.9067C17.2581 31.3258 16.6456 31.5559 16.012 31.5533ZM5.33333 2.66667C4.62609 2.66667 3.94781 2.94762 3.44772 3.44771C2.94762 3.94781 2.66667 4.62609 2.66667 5.33333V21.3333C2.66667 22.0406 2.94762 22.7189 3.44772 23.219C3.94781 23.719 4.62609 24 5.33333 24H9.71867C10.0329 24 10.337 24.111 10.5773 24.3133L15.972 28.86L21.5347 24.3053C21.7737 24.1079 22.074 23.9999 22.384 24H26.6667C27.3739 24 28.0522 23.719 28.5523 23.219C29.0524 22.7189 29.3333 22.0406 29.3333 21.3333V5.33333C29.3333 4.62609 29.0524 3.94781 28.5523 3.44771C28.0522 2.94762 27.3739 2.66667 26.6667 2.66667H5.33333Z" fill="white"/>
</g>
<defs>
<clipPath id="clip0_618_4516">
<rect width="32" height="32" fill="white"/>
</clipPath>
</defs>
</svg>
